<svg width="497" height="88" viewBox="0 0 497 88" fill="none" xmlns="http://www.w3.org/2000/svg">
<path d="M22.336 12.88C21.184 12.88 20.304 13.376 19.696 14.368C19.44 14.816 19.296 15.328 19.264 15.904V42.16C19.264 44.72 18.848 47.072 18.016 49.216C17.216 51.36 16.016 53.12 14.416 54.496C12.784 55.872 10.784 56.56 8.416 56.56C6.08 56.56 3.424 55.76 0.447998 54.16L0.543998 53.728C1.056 53.824 1.568 53.872 2.08 53.872C2.592 53.872 3.2 53.792 3.904 53.632C4.576 53.504 5.216 53.216 5.824 52.768C6.432 52.352 6.96 51.792 7.408 51.088C7.856 50.384 8.208 49.664 8.464 48.928C8.72 48.224 8.912 47.44 9.04 46.576C9.296 45.168 9.424 43.648 9.424 42.016V15.904C9.392 15.072 9.072 14.368 8.464 13.792C7.888 13.184 7.184 12.88 6.352 12.88H5.728V12.4H22.96V12.88H22.336Z" fill="#578DB0"/>
<path d="M25.4702 45.52C26.3022 45.52 27.0062 45.232 27.5822 44.656C28.1902 44.048 28.5102 43.328 28.5422 42.496V15.856C28.5102 15.024 28.1902 14.32 27.5822 13.744C27.0062 13.168 26.3022 12.88 25.4702 12.88H24.8462V12.4H42.0782V12.88H41.4542C40.6222 12.88 39.9023 13.168 39.2943 13.744C38.7183 14.32 38.4142 15.024 38.3822 15.856V42.496C38.3822 43.328 38.6862 44.048 39.2943 44.656C39.9023 45.232 40.6222 45.52 41.4542 45.52H42.0782V46H24.8462V45.52H25.4702Z" fill="#578DB0"/>
<path d="M65.1647 14.752V42.544C65.1967 43.376 65.5008 44.08 66.0768 44.656C66.6848 45.232 67.4048 45.52 68.2368 45.52H68.8607V46H51.6287V45.52H52.2527C53.0847 45.52 53.7887 45.232 54.3647 44.656C54.9727 44.08 55.2927 43.392 55.3247 42.592V14.752H50.5727C48.6527 14.784 47.1487 15.36 46.0607 16.48C44.9727 17.568 44.4287 19.072 44.4287 20.992V21.328L43.9487 21.376V11.488C44.3967 11.68 45.1967 11.872 46.3487 12.064C47.5327 12.256 48.6207 12.352 49.6127 12.352H70.8768C71.8688 12.352 72.9408 12.256 74.0928 12.064C75.2448 11.872 76.0607 11.68 76.5407 11.488V21.376L76.0608 21.328V20.992C76.0608 18.4 75.1007 16.576 73.1807 15.52C72.2527 15.04 71.1488 14.784 69.8688 14.752H65.1647Z" fill="#578DB0"/>
<path d="M79.0484 45.52C79.8804 45.52 80.5844 45.232 81.1604 44.656C81.7684 44.048 82.0884 43.328 82.1204 42.496V15.856C82.0884 15.024 81.7684 14.32 81.1604 13.744C80.5844 13.168 79.8804 12.88 79.0484 12.88H78.4244V12.4H95.6564V12.88H95.0324C94.2004 12.88 93.4804 13.168 92.8724 13.744C92.2964 14.32 91.9924 15.024 91.9604 15.856V42.496C91.9604 43.328 92.2644 44.048 92.8724 44.656C93.4804 45.232 94.2004 45.52 95.0324 45.52H95.6564V46H78.4244V45.52H79.0484ZM117.688 46H112.504C106.616 46 102.504 44.4 100.168 41.2C99.2084 39.92 97.8484 37.872 96.0884 35.056C94.3604 32.208 93.4964 30.768 93.4964 30.736L104.968 15.088C105.192 14.768 105.304 14.48 105.304 14.224C105.304 13.968 105.256 13.744 105.16 13.552C104.936 13.072 104.488 12.832 103.816 12.832H103.336V12.4H114.904V12.832H114.712C112.568 12.832 110.808 13.616 109.432 15.184L101.32 24.976L112.552 41.872C114.12 44.24 115.832 45.456 117.688 45.52V46Z" fill="#578DB0"/>
<path d="M152.55 45.52H152.934V46H134.742V45.52H135.174C135.878 45.52 136.406 45.312 136.758 44.896C137.11 44.448 137.286 44.048 137.286 43.696C137.286 43.312 137.206 42.912 137.046 42.496L135.174 38.032H124.902L122.982 42.496C122.822 42.912 122.742 43.248 122.742 43.504C122.742 43.76 122.79 44.048 122.886 44.368C123.014 44.656 123.254 44.928 123.606 45.184C123.99 45.408 124.39 45.52 124.806 45.52H125.238V46H114.534V45.52H114.966C115.702 45.52 116.422 45.312 117.126 44.896C117.862 44.448 118.47 43.792 118.95 42.928L130.134 18.4C131.83 14.816 132.742 12.432 132.87 11.248H133.302L148.518 42.88C149.542 44.64 150.886 45.52 152.55 45.52ZM125.958 35.632H134.166L130.134 26.032L125.958 35.632Z" fill="#578DB0"/>
<path d="M165.017 45.52C165.849 45.52 166.553 45.232 167.129 44.656C167.737 44.048 168.057 43.328 168.089 42.496V15.856C168.057 15.024 167.737 14.32 167.129 13.744C166.553 13.168 165.849 12.88 165.017 12.88H164.393V12.4H181.625V12.88H181.001C180.169 12.88 179.449 13.168 178.841 13.744C178.265 14.32 177.961 15.024 177.929 15.856V42.496C177.929 43.328 178.233 44.048 178.841 44.656C179.449 45.232 180.169 45.52 181.001 45.52H181.625V46H164.393V45.52H165.017ZM215.993 54.496C212.825 56.288 209.769 57.184 206.825 57.184C202.665 57.184 198.585 55.104 194.585 50.944C193.113 49.408 191.593 47.552 190.025 45.376L179.465 30.736L190.937 15.088C191.161 14.768 191.273 14.48 191.273 14.224C191.273 13.968 191.225 13.744 191.129 13.552C190.905 13.072 190.457 12.832 189.785 12.832H189.305V12.4H200.873V12.832H200.681C198.537 12.832 196.777 13.616 195.401 15.184L187.193 25.12L198.185 40.576C201.673 45.472 204.665 48.864 207.161 50.752C209.689 52.64 212.601 53.712 215.897 53.968L215.993 54.496Z" fill="#578DB0"/>
<path d="M204.486 45.52C205.318 45.52 206.022 45.232 206.598 44.656C207.206 44.048 207.526 43.328 207.558 42.496V15.904C207.526 14.72 207.014 13.84 206.022 13.264C205.542 13.008 205.03 12.88 204.486 12.88H203.862V12.4H221.094V12.88H220.47C219.638 12.88 218.918 13.184 218.31 13.792C217.702 14.368 217.398 15.072 217.398 15.904V43.552H223.302C225.638 43.552 227.702 42.784 229.494 41.248C231.286 39.712 232.55 37.584 233.286 34.864H233.766L231.942 46H203.862V45.52H204.486Z" fill="#578DB0"/>
<path d="M242.902 9.47199L242.566 9.13599C243.494 6.95999 245.494 4.43199 248.566 1.55199C249.078 1.07199 249.558 0.623993 250.006 0.207993C252.054 1.07199 253.414 2.67199 254.086 5.00799C252.486 6.06399 250.646 7.02399 248.566 7.88799C246.486 8.75199 244.598 9.27999 242.902 9.47199ZM235.798 45.52C236.63 45.52 237.334 45.232 237.91 44.656C238.518 44.048 238.838 43.328 238.87 42.496V15.856C238.838 15.024 238.518 14.32 237.91 13.744C237.334 13.168 236.63 12.88 235.798 12.88H235.174V12.4H252.406V12.88H251.782C250.95 12.88 250.23 13.168 249.622 13.744C249.046 14.32 248.742 15.024 248.71 15.856V42.496C248.71 43.328 249.014 44.048 249.622 44.656C250.23 45.232 250.95 45.52 251.782 45.52H252.406V46H235.174V45.52H235.798Z" fill="#578DB0"/>
<path d="M273.936 9.32799H273.36L265.248 0.927992L265.584 0.543994L273.648 3.61599L281.232 0.543994L281.568 0.927992L273.936 9.32799ZM254.352 29.152C254.352 25.536 255.184 22.416 256.848 19.792C258.512 17.168 260.912 15.168 264.048 13.792C267.216 12.416 271.088 11.728 275.664 11.728C280.24 11.728 284.256 12.464 287.712 13.936L287.232 23.104H286.8C285.872 19.872 284.528 17.568 282.768 16.192C281.008 14.816 278.816 14.128 276.192 14.128C272.64 14.128 269.872 15.44 267.888 18.064C265.904 20.688 264.912 24.352 264.912 29.056C264.912 33.728 265.824 37.408 267.648 40.096C269.504 42.784 272.064 44.176 275.328 44.272C279.104 44.272 281.84 43.376 283.536 41.584C285.136 39.92 286.384 36.72 287.28 31.984H287.664L288.816 40.72C286.448 44.688 281.968 46.656 275.376 46.624C268.816 46.624 263.664 45.104 259.92 42.064C256.208 38.992 254.352 34.688 254.352 29.152Z" fill="#578DB0"/>
<path d="M331.198 12.88C330.398 12.88 329.71 13.168 329.134 13.744C328.558 14.288 328.254 14.96 328.222 15.76V40.528C328.222 42.896 328.382 44.72 328.702 46L328.846 46.672H328.414L305.422 26.224V42.592C305.422 43.744 305.918 44.592 306.91 45.136C307.358 45.392 307.838 45.52 308.35 45.52H309.262V46H291.694V45.52H292.606C293.406 45.52 294.094 45.248 294.67 44.704C295.246 44.128 295.534 43.424 295.534 42.592V17.68C295.534 15.44 295.374 13.664 295.054 12.352L294.91 11.68H295.39L318.382 32.128V15.808C318.35 14.976 318.046 14.288 317.47 13.744C316.894 13.168 316.206 12.88 315.406 12.88H314.494V12.4H332.062V12.88H331.198Z" fill="#578DB0"/>
<path d="M341.246 9.47199L340.91 9.13599C341.838 6.95999 343.838 4.43199 346.91 1.55199C347.422 1.07199 347.902 0.623993 348.35 0.207993C350.398 1.07199 351.758 2.67199 352.43 5.00799C350.83 6.06399 348.99 7.02399 346.91 7.88799C344.83 8.75199 342.942 9.27999 341.246 9.47199ZM334.142 45.52C334.974 45.52 335.678 45.232 336.254 44.656C336.862 44.048 337.182 43.328 337.214 42.496V15.856C337.182 15.024 336.862 14.32 336.254 13.744C335.678 13.168 334.974 12.88 334.142 12.88H333.518V12.4H350.75V12.88H350.126C349.294 12.88 348.574 13.168 347.966 13.744C347.39 14.32 347.086 15.024 347.054 15.856V42.496C347.054 43.328 347.358 44.048 347.966 44.656C348.574 45.232 349.294 45.52 350.126 45.52H350.75V46H333.518V45.52H334.142Z" fill="#578DB0"/>
<path d="M354.205 45.52C355.037 45.52 355.741 45.232 356.317 44.656C356.925 44.048 357.245 43.328 357.277 42.496V15.856C357.245 15.024 356.925 14.32 356.317 13.744C355.741 13.168 355.037 12.88 354.205 12.88H353.581V12.4H370.813V12.88H370.189C369.357 12.88 368.637 13.168 368.029 13.744C367.453 14.32 367.149 15.024 367.117 15.856V42.496C367.117 43.328 367.421 44.048 368.029 44.656C368.637 45.232 369.357 45.52 370.189 45.52H370.813V46H353.581V45.52H354.205ZM392.845 46H387.661C381.773 46 377.661 44.4 375.325 41.2C374.365 39.92 373.005 37.872 371.245 35.056C369.517 32.208 368.653 30.768 368.653 30.736L380.125 15.088C380.349 14.768 380.461 14.48 380.461 14.224C380.461 13.968 380.413 13.744 380.317 13.552C380.093 13.072 379.645 12.832 378.973 12.832H378.493V12.4H390.061V12.832H389.869C387.725 12.832 385.965 13.616 384.589 15.184L376.477 24.976L387.709 41.872C389.277 44.24 390.989 45.456 392.845 45.52V46Z" fill="#578DB0"/>
<path d="M411.241 11.728C415.369 11.728 418.921 12.416 421.897 13.792C424.905 15.168 427.209 17.184 428.809 19.84C430.409 22.464 431.209 25.584 431.209 29.2C431.209 34.672 429.433 38.96 425.881 42.064C422.329 45.136 417.449 46.672 411.241 46.672C405.033 46.672 400.153 45.136 396.601 42.064C393.081 38.96 391.321 34.672 391.321 29.2C391.321 23.728 393.081 19.456 396.601 16.384C400.153 13.28 405.033 11.728 411.241 11.728ZM404.377 40.288C406.041 42.944 408.329 44.272 411.241 44.272C414.185 44.272 416.473 42.944 418.105 40.288C419.769 37.632 420.601 33.936 420.601 29.2C420.601 24.464 419.769 20.768 418.105 18.112C416.473 15.456 414.185 14.128 411.241 14.128C408.329 14.128 406.041 15.456 404.377 18.112C402.745 20.768 401.929 24.464 401.929 29.2C401.929 33.936 402.745 37.632 404.377 40.288Z" fill="#578DB0"/>
<path d="M467.934 12.88H467.502C465.838 12.88 464.51 13.744 463.518 15.472L452.334 40C450.638 43.584 449.726 45.968 449.598 47.152H449.166L433.95 15.52C432.958 13.76 431.614 12.88 429.918 12.88H429.534V12.4H447.726V12.88H447.294C446.622 12.88 446.11 13.104 445.758 13.552C445.438 13.968 445.278 14.368 445.278 14.752C445.278 15.136 445.342 15.52 445.47 15.904L452.334 32.368L459.486 15.904C459.678 15.488 459.774 15.104 459.774 14.752C459.774 14.368 459.598 13.968 459.246 13.552C458.894 13.104 458.366 12.88 457.662 12.88H457.23V12.4H467.934V12.88Z" fill="#578DB0"/>
<path d="M476.22 9.47199L475.884 9.13599C476.492 7.72799 477.532 6.19199 479.004 4.52799C480.508 2.83199 481.947 1.39199 483.323 0.207993C485.371 1.07199 486.732 2.67199 487.404 5.00799C485.804 6.06399 483.964 7.02399 481.884 7.88799C479.804 8.75199 477.916 9.27999 476.22 9.47199ZM496.332 45.52H496.716V46H478.523V45.52H478.956C479.66 45.52 480.187 45.312 480.539 44.896C480.891 44.448 481.068 44.048 481.068 43.696C481.068 43.312 480.988 42.912 480.828 42.496L478.956 38.032H468.684L466.763 42.496C466.603 42.912 466.523 43.248 466.523 43.504C466.523 43.76 466.572 44.048 466.668 44.368C466.796 44.656 467.036 44.928 467.388 45.184C467.772 45.408 468.171 45.52 468.587 45.52H469.02V46H458.315V45.52H458.747C459.483 45.52 460.204 45.312 460.908 44.896C461.644 44.448 462.252 43.792 462.732 42.928L473.915 18.4C475.611 14.816 476.523 12.432 476.651 11.248H477.083L492.299 42.88C493.323 44.64 494.668 45.52 496.332 45.52ZM469.74 35.632H477.948L473.915 26.032L469.74 35.632Z" fill="#578DB0"/>
<path d="M26.6328 76.9785C26.6328 80.1504 25.8398 82.6615 24.2539 84.5117C22.668 86.3529 20.4805 87.2734 17.6914 87.2734C14.9115 87.2734 12.7285 86.3529 11.1426 84.5117C9.55664 82.6615 8.76367 80.1413 8.76367 76.9512C8.76367 73.7702 9.5612 71.2682 11.1562 69.4453C12.7604 67.6133 14.9479 66.6973 17.7188 66.6973C20.5078 66.6973 22.6908 67.6178 24.2676 69.459C25.8444 71.291 26.6328 73.7975 26.6328 76.9785ZM10.2812 76.9785C10.2812 79.8405 10.9193 82.0553 12.1953 83.623C13.4714 85.1816 15.3034 85.9609 17.6914 85.9609C20.0977 85.9609 21.9342 85.1862 23.2012 83.6367C24.4772 82.0872 25.1152 79.8678 25.1152 76.9785C25.1152 74.0983 24.4772 71.8926 23.2012 70.3613C21.9342 68.821 20.1068 68.0508 17.7188 68.0508C15.3398 68.0508 13.5033 68.8255 12.209 70.375C10.9238 71.9245 10.2812 74.1257 10.2812 76.9785Z" fill="black"/>
<path d="M66.3715 67.9824C63.865 67.9824 61.8917 68.7845 60.4516 70.3887C59.0115 71.9928 58.2914 74.1895 58.2914 76.9785C58.2914 79.8314 58.9704 82.0462 60.3285 83.623C61.6866 85.1999 63.628 85.9883 66.1527 85.9883C67.8298 85.9883 69.3702 85.7741 70.7738 85.3457V86.5762C69.4522 87.041 67.8025 87.2734 65.8246 87.2734C63.0173 87.2734 60.807 86.3665 59.1937 84.5527C57.5805 82.7389 56.7738 80.2051 56.7738 76.9512C56.7738 74.9186 57.1566 73.1276 57.9223 71.5781C58.697 70.0286 59.8044 68.8346 61.2445 67.9961C62.6937 67.1484 64.3754 66.7246 66.2895 66.7246C68.24 66.7246 69.9854 67.0892 71.5258 67.8184L70.9652 69.0762C69.5069 68.347 67.9756 67.9824 66.3715 67.9824ZM69.3793 61.1602C67.8298 62.8737 66.727 64.291 66.0707 65.4121H64.7309C64.0381 64.2454 62.9353 62.8281 61.4223 61.1602V60.9277H62.3793C63.4184 61.7845 64.4255 62.7279 65.4008 63.7578C66.3852 62.7188 67.3923 61.7754 68.4223 60.9277H69.3793V61.1602Z" fill="black"/>
<path d="M116.364 87H114.956L103.116 69.2539H103.007C103.116 71.3685 103.171 72.9635 103.171 74.0391V87H101.831V67.0117H103.225L115.052 84.7305H115.134C115.052 83.0898 115.011 81.5312 115.011 80.0547V67.0117H116.364V87Z" fill="black"/>
<path d="M148.638 87V67.0117H150.032V87H148.638ZM148.419 65.1934C149.085 64.4733 149.741 63.694 150.388 62.8555C151.044 62.0078 151.491 61.3652 151.728 60.9277H153.655V61.1602C153.327 61.6341 152.767 62.263 151.974 63.0469C151.19 63.8307 150.324 64.6191 149.376 65.4121H148.419V65.1934Z" fill="black"/>
<path d="M228.197 72.7539C228.197 74.6862 227.541 76.1673 226.229 77.1973C224.916 78.2272 223.057 78.7422 220.65 78.7422H217.561V87H216.166V67.0117H221.061C225.818 67.0117 228.197 68.9258 228.197 72.7539ZM217.561 77.5391H220.309C222.56 77.5391 224.187 77.1699 225.189 76.4316C226.192 75.6842 226.693 74.4766 226.693 72.8086C226.693 71.2682 226.219 70.1289 225.271 69.3906C224.324 68.6432 222.856 68.2695 220.869 68.2695H217.561V77.5391Z" fill="black"/>
<path d="M260.539 78.291V87H259.145V67.0117H263.903C266.382 67.0117 268.214 67.472 269.399 68.3926C270.584 69.304 271.176 70.6803 271.176 72.5215C271.176 73.8613 270.821 74.9915 270.11 75.9121C269.408 76.8327 268.337 77.4935 266.897 77.8945L272.325 87H270.657L265.502 78.291H260.539ZM260.539 77.0879H264.354C266.04 77.0879 267.348 76.7142 268.278 75.9668C269.207 75.2103 269.672 74.0983 269.672 72.6309C269.672 71.1087 269.217 70.0013 268.305 69.3086C267.394 68.6159 265.908 68.2695 263.848 68.2695H260.539V77.0879Z" fill="black"/>
<path d="M319.2 76.9785C319.2 80.1504 318.407 82.6615 316.821 84.5117C315.235 86.3529 313.048 87.2734 310.259 87.2734C307.479 87.2734 305.296 86.3529 303.71 84.5117C302.124 82.6615 301.331 80.1413 301.331 76.9512C301.331 73.7702 302.128 71.2682 303.723 69.4453C305.328 67.6133 307.515 66.6973 310.286 66.6973C313.075 66.6973 315.258 67.6178 316.835 69.459C318.412 71.291 319.2 73.7975 319.2 76.9785ZM302.848 76.9785C302.848 79.8405 303.486 82.0553 304.763 83.623C306.039 85.1816 307.871 85.9609 310.259 85.9609C312.665 85.9609 314.501 85.1862 315.768 83.6367C317.044 82.0872 317.682 79.8678 317.682 76.9785C317.682 74.0983 317.044 71.8926 315.768 70.3613C314.501 68.821 312.674 68.0508 310.286 68.0508C307.907 68.0508 306.07 68.8255 304.776 70.375C303.491 71.9245 302.848 74.1257 302.848 76.9785Z" fill="black"/>
<path d="M355.616 87H354.208V68.3242H347.714V67.0117H362.111V68.3242H355.616V87Z" fill="black"/>
<path d="M402.615 87H391.691V67.0117H402.615V68.2969H393.086V75.8574H402.082V77.1426H393.086V85.7148H402.615V87ZM395.191 65.1934C395.856 64.4733 396.513 63.694 397.16 62.8555C397.816 62.0078 398.263 61.3652 398.5 60.9277H400.427V61.1602C400.099 61.6341 399.539 62.263 398.746 63.0469C397.962 63.8307 397.096 64.6191 396.148 65.4121H395.191V65.1934Z" fill="black"/>
<path d="M445.922 87H432.031V85.9609L443.734 68.3242H432.564V67.0117H445.607V68.0508L433.877 85.6875H445.922V87Z" fill="black"/>
<path d="M481.067 77.9492L486.918 67.0117H488.422L481.764 79.2754V87H480.329V79.3848L473.643 67.0117H475.243L481.067 77.9492Z" fill="black"/>
</svg>
